<?xml version="1.0" encoding="UTF-8"?>
<svg version="1.1" viewBox="0 0 330 330" xmlns="http://www.w3.org/2000/svg" xmlns:cc="http://creativecommons.org/ns#" xmlns:dc="http://purl.org/dc/elements/1.1/" xmlns:rdf="http://www.w3.org/1999/02/22-rdf-syntax-ns#">
   <path d="m165 5c-100 0-160 60-160 160s60 160 160 160 160-55 160-160-60-160-160-160zm0 5-2e-3 2e-3c95.002-2e-3 155 54.998 155 155 0.00195 89.998-43.946 134.62-113.34 150.47-1.3234-5.0206-0.85705-9.4686 0.34375-12.471 9 5 21 5 29-5-9-3-18-10-20-16 12 0 22-12 24-23-6 3-14 4-20 1s-10-10-10-20-10-17-23-17c23-2 43-7 57-21s19-32 19-57-5-41-15-50c7-5 11-10 11-22s-6-28-28-28-28 6-32 24c-11-5-31-5-34-5s-24 0-34 5c-3-18-10-24-32-24-22 0-28 16-28 28s4 17 11 22c-10 9-15 25-15 50s5 43 19 57c14 14 34 19 57 21-13 0-23 7-23 17s-4 17-10 20-14 2-20-1c2 11 12 23 24 23-2 6-11 13-20 16 8 10 20.131 10 29 5 1.2801 3.0042 1.7301 7.4549 0.37891 12.479-69.416-15.84-113.38-65.48-113.38-150.48 0-95 60-155 155-155zm-38.328 76.588c5.5751-0.1101 10.9 0.71967 15.352 2.8555 18.31 8.785 22.345 32.943 23.271 52.172 1.932 40.09 4.4889 60.703-15.703 70.617-14.88 7.306-45.456-4.6248-57.471-14.926-15.265-13.087-17.357-35.336-17.576-53.301-0.214-17.63 5.1029-35.427 14.938-44.326 7.068-6.3965 22.943-12.81 37.189-13.092zm-0.64063 57.586c-9.8347 0-14.752 13.349-14.752 22.248 0 8.899 4.9172 22.248 14.752 22.248 9.8348 0 14.815-13.349 14.752-22.248-0.063-8.899-4.9172-22.248-14.752-22.248zm78.676 0c9.8348 0 14.752 13.349 14.752 22.248 0 8.899-4.9174 22.248-14.752 22.248-9.8348 0-14.752-13.349-14.752-22.248 0-8.899 4.9174-22.248 14.752-22.248zm-26.822 79.846v2e-3c20.448-0.293 30.115 5.3205 30.115 15.98 0 35 0.48892 47.196 24.045 58.941-7.929 8.3793-23.811 5.8173-28.9-4.3887-5.8475-11.726-5.1445-20.555-5.1445-37.555-0.234-19.323 1.0004-30-24.35-32.844 1.4594-0.0722 2.8712-0.11722 4.2344-0.13672z"/>
</svg>