<?xml version="1.0" encoding="UTF-8"?>
<svg version="1.1" viewBox="0 0 330 330" xmlns="http://www.w3.org/2000/svg" xmlns:cc="http://creativecommons.org/ns#" xmlns:dc="http://purl.org/dc/elements/1.1/" xmlns:rdf="http://www.w3.org/1999/02/22-rdf-syntax-ns#">
   <path d="m165 10c-95 0-155 60-155 155 0 80 43.964 134.64 113.38 150.48 1.3512-5.0236 0.90117-9.4748-0.37891-12.479-8.8691 5-21 5-29-5 9-3 18-10 20-16-12 0-22-12-24-23 6 3 14 4 20 1s10-10 10-20 10-17 23-17c-23-2-43-7-57-21s-19-32-19-57 5-41 15-50c-7-5-11-10-11-22s6-28 28-28 29 6 32 24c10-5 31-5 34-5s23 0 34 5c4-18 10-24 32-24s28 16 28 28-4 17-11 22c10 9 15 25 15 50s-5 43-19 57-34 19-57 21c13 0 23 7 23 17s4 17 10 20 14 2 20-1c-2 11-12 23-24 23 2 6 11 13 20 16-8 10-20 10-29 5-1.2008 3.0021-1.6672 7.4504-0.34375 12.471 69.394-15.851 113.34-70.472 113.34-150.47-0.00316-95.002-59.997-155-155-155zm-38.328 76.588c-14.246 0.28145-30.121 6.6955-37.189 13.092-9.8346 8.8991-15.152 26.696-14.938 44.326 0.21957 17.965 2.3112 40.214 17.576 53.301 12.015 10.301 42.591 22.232 57.471 14.926 20.192-9.9144 17.635-30.527 15.703-70.617-0.92672-19.229-4.9608-43.387-23.271-52.172-4.4513-2.1358-9.7769-2.9656-15.352-2.8555zm-0.64063 57.586c9.8347 0 14.689 13.349 14.752 22.248 0.0628 8.8991-4.9172 22.248-14.752 22.248-9.8347 0-14.752-13.349-14.752-22.248s4.9173-22.248 14.752-22.248zm78.676 0c-9.8346 0-14.752 13.349-14.752 22.248 0 8.8991 4.9172 22.248 14.752 22.248 9.8346 0 14.752-13.349 14.752-22.248s-4.9172-22.248-14.752-22.248zm-26.822 79.846c-1.3632 0.0195-2.775 0.0645-4.2344 0.13672 25.35 2.8438 24.116 13.521 24.35 32.844 0 17-0.70492 25.827 5.1426 37.553 5.0898 10.206 20.973 12.768 28.902 4.3887-23.556-11.745-24.045-23.941-24.045-58.941 0-10.66-9.6672-16.273-30.115-15.98z"/>
</svg>
